<svg width="120" height="28" viewBox="0 0 120 28" fill="none" xmlns="http://www.w3.org/2000/svg">
<path d="M3.8344 8.73103C4.85299 7.07783 6.3497 6.2565 8.32452 6.2565C10.2993 6.2565 11.9312 6.95147 13.2096 8.35196C14.4881 9.74191 15.1325 11.5425 15.1325 13.7433C15.1325 15.944 14.4881 17.7447 13.2096 19.1557C11.9312 20.5561 10.3097 21.2617 8.3661 21.2617C6.42246 21.2617 4.90496 20.3771 3.8344 18.6081V21.0511H0.175781V1.57068H3.8344V8.73103ZM10.2993 16.8917C11.0477 16.123 11.4323 15.0701 11.4323 13.7328C11.4323 12.3954 11.0581 11.353 10.2993 10.5948C9.55099 9.83668 8.65713 9.4576 7.63854 9.4576C6.61994 9.4576 5.72607 9.83668 4.97772 10.6054C4.22936 11.374 3.84479 12.4165 3.84479 13.7538C3.84479 15.0911 4.21897 16.1336 4.97772 16.9023C5.73647 17.6709 6.61994 18.05 7.63854 18.05C8.65713 18.05 9.5406 17.6604 10.2993 16.8917Z" fill="black"/>
<path d="M18.0259 21.0522V1.57178H21.6845V21.0522H18.0259Z" fill="black"/>
<path d="M35.5171 6.4668H39.1757V21.0508H35.5171V18.8395C34.6025 20.44 33.1058 21.2403 31.027 21.2403C29.3952 21.2403 28.0648 20.6927 27.0254 19.5976C25.986 18.5025 25.4663 16.9757 25.4663 15.0276V6.47733H29.1041V14.5011C29.1041 15.6384 29.3952 16.5229 29.9564 17.1336C30.5281 17.7444 31.3076 18.0603 32.295 18.0603C33.2824 18.0603 34.062 17.7549 34.644 17.1336C35.2261 16.5229 35.5171 15.6384 35.5171 14.5011V6.4668Z" fill="black"/>
<path d="M49.1501 21.2611C47.0506 21.2611 45.346 20.5767 44.0363 19.1973C42.7163 17.8178 42.0615 15.9962 42.0615 13.7322C42.0615 11.4683 42.7267 9.65715 44.0467 8.29879C45.3772 6.94043 47.0817 6.25598 49.1917 6.25598C51.3016 6.25598 53.027 6.91937 54.3782 8.24614C55.7294 9.57291 56.405 11.3419 56.405 13.5532C56.405 14.0587 56.3738 14.5325 56.301 14.9748H45.8033C45.8864 15.9225 46.2398 16.6806 46.8427 17.2703C47.4455 17.8494 48.2147 18.1337 49.1501 18.1337C50.4181 18.1337 51.3536 17.6072 51.9564 16.5543H55.9061C55.4903 17.9442 54.6796 19.0709 53.4947 19.9449C52.2994 20.8189 50.8547 21.2611 49.1501 21.2611ZM51.5615 10.2574C50.917 9.67821 50.1271 9.3939 49.2125 9.3939C48.2978 9.3939 47.5287 9.68874 46.9154 10.2574C46.3022 10.8365 45.928 11.6052 45.8137 12.5739H52.6216C52.5593 11.6052 52.2059 10.8365 51.5615 10.2574Z" fill="black"/>
<path d="M62.9565 8.73052C63.9751 7.07732 65.4718 6.25598 67.4466 6.25598C69.4214 6.25598 71.0532 6.95096 72.3317 8.35144C73.6101 9.74139 74.2545 11.542 74.2545 13.7428C74.2545 15.9435 73.6101 17.7441 72.3317 19.1551C71.0532 20.5556 69.4318 21.2611 67.4882 21.2611C65.5445 21.2611 64.027 20.3766 62.9565 18.6076V28.0003H59.2979V6.46658H62.9565V8.73052ZM69.411 16.8912C70.1594 16.1225 70.5439 15.0695 70.5439 13.7322C70.5439 12.3949 70.1698 11.3525 69.411 10.5943C68.6627 9.83616 67.7688 9.45708 66.7502 9.45708C65.7316 9.45708 64.8377 9.83616 64.0894 10.6048C63.341 11.3735 62.9565 12.416 62.9565 13.7533C62.9565 15.0906 63.3306 16.1331 64.0894 16.9017C64.8481 17.6704 65.7316 18.0495 66.7502 18.0495C67.7688 18.0495 68.6627 17.6599 69.411 16.8912Z" fill="black"/>
<path d="M80.7965 6.46658V9.04641C81.7631 7.18262 83.1662 6.25598 85.006 6.25598V10.0468H84.0913C82.9999 10.0468 82.1788 10.3205 81.6176 10.8786C81.0667 11.4262 80.7861 12.3844 80.7861 13.7322V21.0505H77.1274V6.46658H80.7965Z" fill="black"/>
<path d="M91.6602 2.74987C91.6602 3.38166 91.4419 3.91869 91.0158 4.35042C90.5792 4.79267 90.0595 5.00327 89.4463 5.00327C88.8331 5.00327 88.303 4.78214 87.8768 4.35042C87.4403 3.90816 87.2324 3.38166 87.2324 2.74987C87.2324 2.11807 87.4507 1.58104 87.8768 1.14932C88.3134 0.70706 88.8331 0.49646 89.4463 0.49646C90.0595 0.49646 90.5896 0.71759 91.0158 1.14932C91.4523 1.58104 91.6602 2.11807 91.6602 2.74987ZM87.6066 21.0509V6.46693H91.2652V21.0509H87.6066Z" fill="black"/>
<path d="M98.8372 6.46658V8.65681C99.7519 7.05626 101.249 6.25598 103.307 6.25598C104.949 6.25598 106.3 6.80354 107.339 7.89865C108.379 8.99376 108.898 10.5206 108.898 12.4686V21.0505H105.261V12.9951C105.261 11.8579 104.97 10.9839 104.408 10.3732C103.847 9.76245 103.057 9.46761 102.07 9.46761C101.082 9.46761 100.303 9.77298 99.7207 10.3732C99.1386 10.9839 98.8476 11.8474 98.8476 12.9951V21.0505H95.189V6.46658H98.8372Z" fill="black"/>
<path d="M118.252 17.9441H119.999V21.0505H117.691C116.215 21.0505 115.082 20.7135 114.282 20.0185C113.482 19.3341 113.087 18.2074 113.087 16.6279V9.48859H111.548V6.45597H113.087V2.85474H116.745V6.45597H119.967V9.48859H116.745V16.6279C116.745 17.1017 116.86 17.4387 117.078 17.6388C117.307 17.8388 117.691 17.9441 118.252 17.9441Z" fill="black"/>
</svg>
