<svg width="30" height="31" viewBox="0 0 30 31" fill="none" xmlns="http://www.w3.org/2000/svg">
<path d="M17.91 6.73089C16.9122 6.08856 16.2158 5.4673 15.6233 4.93027C14.7295 4.11947 14.4177 3.7088 13.2016 2.43468C12.7235 1.92924 12.0271 1.22373 11.1748 0.39187C11.0189 0.244451 10.7383 0.202331 10.5512 0.31816C8.34768 1.60281 6.14419 2.88746 3.9407 4.18264C3.74322 4.29847 3.63928 4.58278 3.70165 4.80391C4.12779 6.12015 4.55394 7.43639 4.98008 8.75264C5.47899 8.62628 5.89474 8.52098 6.48719 8.32091C6.73664 8.23667 7.00688 8.1419 7.28751 8.04713C7.01727 7.19421 6.73664 6.34128 6.4664 5.48836L10.5616 3.10859C11.3723 4.10894 12.0998 4.90921 12.6611 5.48836C13.5134 6.3834 14.1058 6.99414 15.0205 7.73123C15.9559 8.47886 16.7459 8.9527 17.0369 9.12118C17.8372 9.59503 18.9598 10.1636 20.3941 10.6164C20.5396 9.7951 20.7163 9.10012 20.9658 8.23667C19.6561 7.77335 18.6375 7.20474 17.91 6.73089Z" fill="black"/>
<path d="M9.16734 8.37248C8.11756 8.92003 7.24448 9.2254 6.48574 9.47812C5.34242 9.8572 4.84351 9.92038 3.13893 10.3521C2.46333 10.5206 1.5175 10.7733 0.374177 11.1103C0.166301 11.1734 0 11.3946 0 11.6157C0 14.1955 0 16.7648 0 19.3447C0 19.5763 0.187089 19.808 0.415752 19.8606C1.75655 20.1449 3.08696 20.4292 4.42776 20.7136C4.57328 20.2186 4.68761 19.7869 4.81233 19.1762C4.8643 18.9129 4.92666 18.6286 4.97863 18.3338C4.11595 18.1443 3.25326 17.9652 2.39058 17.7757L2.40097 12.9951C3.65862 12.7845 4.70839 12.5423 5.48793 12.3423C6.67282 12.0474 7.50433 11.8263 8.58528 11.3946C9.68703 10.9418 10.4874 10.489 10.7784 10.3205C11.5787 9.8572 12.6285 9.15169 13.7406 8.11976C13.1066 7.58273 12.6077 7.07729 11.9841 6.42444C10.9343 7.35107 9.93648 7.96181 9.16734 8.37248Z" fill="black"/>
<path d="M6.23035 16.8176C6.17838 18.0075 5.99129 18.9341 5.82499 19.7239C5.57553 20.9138 5.38845 21.3876 4.89994 23.0935C4.71285 23.7674 4.453 24.7256 4.16198 25.8944C4.11001 26.105 4.22434 26.3683 4.41143 26.4736C6.60452 27.7582 8.79762 29.0429 10.9907 30.3275C11.209 30.4539 11.5 30.3907 11.6559 30.2012C12.1548 29.5588 12.7161 28.8954 13.3397 28.2215C13.6931 27.8425 14.0569 27.4844 14.3999 27.1475C14.244 26.979 14.0465 26.7789 13.8178 26.5473C13.6619 26.3893 13.4852 26.2314 13.2773 26.0418C13.0799 25.8628 12.872 25.6733 12.6329 25.4732C12.3107 25.7575 11.9469 26.105 11.5935 26.5157C11.3129 26.8421 11.0635 27.1685 10.8556 27.4634C9.494 26.6631 8.13241 25.8628 6.77082 25.052C7.21776 23.8411 7.53996 22.7986 7.75823 22.0194C8.09084 20.8295 8.32989 19.9977 8.49619 18.8288C8.6625 17.639 8.67289 16.7123 8.67289 16.3648C8.67289 15.4277 8.60013 14.1535 8.27792 12.6688C7.49839 12.9531 6.8124 13.1427 5.96011 13.3638C6.23034 14.7643 6.26153 15.9436 6.23035 16.8176Z" fill="black"/>
<path d="M11.9314 23.6723C12.9292 24.3146 13.6256 24.9358 14.218 25.4729C15.1119 26.2837 15.4237 26.6943 16.6398 27.9685C17.1179 28.4739 17.8143 29.1794 18.6666 30.0113C18.8225 30.1587 19.1031 30.2008 19.2902 30.085C21.4937 28.8003 23.6972 27.5157 25.9007 26.2205C26.0982 26.1047 26.2021 25.8204 26.1397 25.5992C25.7136 24.283 25.2875 22.9667 24.8613 21.6505C24.3624 21.7769 23.9467 21.8822 23.3542 22.0822C23.1048 22.1665 22.8345 22.2612 22.5539 22.356C22.8241 23.2089 23.1048 24.0619 23.375 24.9148L19.2694 27.3051C18.4587 26.3047 17.7312 25.5045 17.1699 24.9253C16.3176 24.0303 15.7251 23.4195 14.8105 22.6824C13.8751 21.9348 13.0851 21.461 12.7941 21.2925C11.9938 20.8186 10.8712 20.25 9.43689 19.7972C9.29138 20.6186 9.11469 21.3135 8.86523 22.177C10.1749 22.6403 11.2038 23.1984 11.9314 23.6723Z" fill="black"/>
<path d="M20.6621 22.1045C21.7119 21.557 22.585 21.2516 23.3437 20.9989C24.4871 20.6198 24.986 20.5566 26.6906 20.1249C27.3662 19.9564 28.312 19.7037 29.4553 19.3667C29.6632 19.3035 29.8295 19.0824 29.8295 18.8613C29.8295 16.2815 29.8295 13.7122 29.8295 11.1323C29.8295 10.9007 29.6424 10.669 29.4137 10.6164C28.0729 10.332 26.7425 10.0477 25.4017 9.76343C25.2562 10.2583 25.1419 10.6901 25.0171 11.3008C24.9652 11.564 24.9028 11.8484 24.8508 12.1432C25.7135 12.3327 26.5762 12.5117 27.4389 12.7013L27.4285 17.4819C26.1709 17.6925 25.1211 17.9347 24.3416 18.1347C23.1567 18.4296 22.3252 18.6507 21.2442 19.0824C20.1425 19.5352 19.3421 19.988 19.0511 20.1565C18.2508 20.6198 17.201 21.3253 16.0889 22.3572C16.7229 22.8943 17.2218 23.3997 17.8454 24.0525C18.9056 23.1259 19.893 22.5046 20.6621 22.1045Z" fill="black"/>
<path d="M23.6174 13.5852C23.6694 12.3953 23.8565 11.4687 24.0228 10.679C24.2722 9.48908 24.4593 9.01523 24.9478 7.30938C25.1349 6.63546 25.3948 5.67724 25.6858 4.50842C25.7378 4.29782 25.6234 4.03457 25.4363 3.92927C23.2329 2.64462 21.0294 1.34944 18.8259 0.0647843C18.6284 -0.051045 18.3374 -0.00892522 18.1815 0.170084C17.2668 1.20202 16.3522 2.23395 15.4375 3.26588C15.7909 3.64496 16.0923 3.95033 16.56 4.37153C16.7575 4.55054 16.9654 4.74008 17.2044 4.94014C17.7969 4.27676 18.3893 3.61337 18.9818 2.93946L23.0666 5.35081C22.6196 6.56175 22.2974 7.60422 22.0791 8.38343C21.7465 9.57331 21.5075 10.4052 21.3412 11.574C21.1749 12.7639 21.1645 13.6905 21.1645 14.038C21.1645 14.9752 21.2372 16.2493 21.5595 17.734C22.339 17.4497 23.025 17.2602 23.8773 17.039C23.607 15.6491 23.5759 14.4697 23.6174 13.5852Z" fill="black"/>
</svg>
